<svg width="82" height="21" viewBox="0 0 82 21" fill="none" xmlns="http://www.w3.org/2000/svg">
<path d="M55.2027 18.4128H58.3724C60.1126 18.4128 60.9828 17.5116 60.9828 15.7092V5.11236C60.9828 3.30997 60.1126 2.40877 58.3724 2.40877H55.2027C53.4832 2.40877 52.6234 3.30997 52.6234 5.11236V15.7092C52.6234 17.5116 53.4832 18.4128 55.2027 18.4128ZM58.6521 20.4016H54.9541C53.5246 20.4016 52.3955 19.9976 51.5668 19.1897C50.7588 18.3817 50.3549 17.2526 50.3549 15.8024V5.01913C50.3549 3.56893 50.7588 2.43985 51.5668 1.63188C52.3955 0.823907 53.5246 0.419922 54.9541 0.419922H58.6521C60.0816 0.419922 61.2003 0.834265 62.0083 1.66295C62.8369 2.47092 63.2513 3.58965 63.2513 5.01913V15.8024C63.2513 17.2319 62.8369 18.361 62.0083 19.1897C61.2003 19.9976 60.0816 20.4016 58.6521 20.4016Z" fill="white"/>
<path d="M36.1187 20.4016H34.7203C34.4303 20.4016 34.2853 20.2566 34.2853 19.9666V0.854982C34.2853 0.564942 34.4303 0.419922 34.7203 0.419922H41.8678C43.2972 0.419922 44.4263 0.834265 45.255 1.66295C46.0837 2.47092 46.4981 3.58965 46.4981 5.01913V7.84703C46.4981 9.00719 46.2184 9.97053 45.659 10.7371C45.0996 11.4829 44.3227 11.9801 43.3283 12.2287V12.353L46.9331 19.9044C47.1196 20.2359 47.016 20.4016 46.6224 20.4016H45.2239C44.8718 20.4016 44.6128 20.2566 44.447 19.9666L40.9666 12.4462H36.8646C36.6574 12.4462 36.5538 12.5395 36.5538 12.7259V19.9666C36.5538 20.2566 36.4088 20.4016 36.1187 20.4016ZM36.8646 10.5506H41.557C43.3387 10.5506 44.2295 9.65978 44.2295 7.8781V5.11236C44.2295 3.30997 43.3387 2.40877 41.557 2.40877H36.8646C36.6574 2.40877 36.5538 2.502 36.5538 2.68845V10.2709C36.5538 10.4574 36.6574 10.5506 36.8646 10.5506Z" fill="white"/>
<path d="M18.6459 20.4016H17.2475C16.9575 20.4016 16.8125 20.2566 16.8125 19.9666V0.854982C16.8125 0.564942 16.9575 0.419922 17.2475 0.419922H18.6459C18.936 0.419922 19.081 0.564942 19.081 0.854982V9.0279C19.081 9.21436 19.1846 9.30759 19.3918 9.30759H27.0985C27.3057 9.30759 27.4093 9.21436 27.4093 9.0279V0.854982C27.4093 0.564942 27.5543 0.419922 27.8444 0.419922H29.2428C29.5328 0.419922 29.6778 0.564942 29.6778 0.854982V19.9666C29.6778 20.2566 29.5328 20.4016 29.2428 20.4016H27.8444C27.5543 20.4016 27.4093 20.2566 27.4093 19.9666V11.5761C27.4093 11.3897 27.3057 11.2964 27.0985 11.2964H19.3918C19.1846 11.2964 19.081 11.3897 19.081 11.5761V19.9666C19.081 20.2566 18.936 20.4016 18.6459 20.4016Z" fill="white"/>
<path d="M8.3283 20.4016H4.59921C3.16973 20.4016 2.04064 19.9976 1.21195 19.1897C0.403985 18.3817 0 17.2526 0 15.8024V5.01913C0 3.56893 0.403985 2.43985 1.21195 1.63188C2.04064 0.823907 3.16973 0.419922 4.59921 0.419922H8.3283C9.75779 0.419922 10.8765 0.823907 11.6845 1.63188C12.5132 2.43985 12.9275 3.56893 12.9275 5.01913V6.54184C12.9275 6.83188 12.7825 6.9769 12.4925 6.9769H11.094C10.804 6.9769 10.659 6.83188 10.659 6.54184V5.11236C10.659 3.30997 9.78886 2.40877 8.04862 2.40877H4.84782C3.12829 2.40877 2.26853 3.30997 2.26853 5.11236V15.7092C2.26853 17.5116 3.12829 18.4128 4.84782 18.4128H8.04862C9.78886 18.4128 10.659 17.5116 10.659 15.7092V14.2797C10.659 13.9897 10.804 13.8446 11.094 13.8446H12.4925C12.7825 13.8446 12.9275 13.9897 12.9275 14.2797V15.8024C12.9275 17.2526 12.5132 18.3817 11.6845 19.1897C10.8765 19.9976 9.75779 20.4016 8.3283 20.4016Z" fill="white"/>
<path d="M76.0687 5.95528H80.73C81.0408 5.95528 81.1962 6.11065 81.1962 6.42141V7.41584C81.1962 7.70588 81.0408 7.8509 80.73 7.8509H76.0687V12.5744C76.0687 12.9059 75.9133 13.0716 75.6026 13.0716H74.546C74.2352 13.0716 74.0798 12.9059 74.0798 12.5744V7.8509H69.3874C69.0766 7.8509 68.9213 7.70588 68.9213 7.41584V6.42141C68.9213 6.11065 69.0766 5.95528 69.3874 5.95528H74.0798V1.26284C74.0798 0.931362 74.2352 0.765625 74.546 0.765625H75.6026C75.9133 0.765625 76.0687 0.931362 76.0687 1.26284V5.95528Z" fill="white"/>
</svg>
