<svg width="708" height="212" viewBox="0 0 708 212" fill="none" xmlns="http://www.w3.org/2000/svg">
<path d="M475.932 181.053H506.945C515.215 181.053 521.582 178.655 526.048 173.858C530.514 169.062 532.747 162.446 532.747 154.01V62.4614C532.747 54.026 530.514 47.41 526.048 42.6134C521.582 37.8168 515.215 35.4185 506.945 35.4185H475.932C467.662 35.4185 461.294 37.8168 456.828 42.6134C452.362 47.41 450.13 54.026 450.13 62.4614V154.01C450.13 162.446 452.362 169.062 456.828 173.858C461.294 178.655 467.662 181.053 475.932 181.053ZM506.945 188H475.932C465.843 188 457.738 184.94 451.618 178.82C445.664 172.701 442.687 164.513 442.687 154.258V62.2133C442.687 51.9585 445.664 43.7712 451.618 37.6514C457.738 31.5316 465.843 28.4717 475.932 28.4717H506.945C517.034 28.4717 525.056 31.5316 531.01 37.6514C537.13 43.7712 540.19 51.9585 540.19 62.2133V154.258C540.19 164.513 537.13 172.701 531.01 178.82C525.056 184.94 517.034 188 506.945 188Z" fill="#343434"/>
<path d="M321.546 188H318.072C316.749 188 316.088 187.256 316.088 185.767V30.7046C316.088 29.216 316.749 28.4717 318.072 28.4717H373.895C383.984 28.4717 392.006 31.5316 397.961 37.6514C404.08 43.7712 407.14 51.9585 407.14 62.2133V87.0233C407.14 96.2857 404.659 103.894 399.697 109.849C394.735 115.638 388.037 119.111 379.601 120.269V121.261L410.118 185.767C410.945 187.256 410.614 188 409.125 188H404.659C403.336 188 402.261 187.256 401.434 185.767L371.166 120.765H325.764C324.275 120.765 323.531 121.427 323.531 122.75V185.767C323.531 187.256 322.869 188 321.546 188ZM325.764 113.818H373.895C382.165 113.818 388.533 111.42 392.999 106.623C397.464 101.827 399.697 95.2106 399.697 86.7752V62.4614C399.697 54.026 397.464 47.41 392.999 42.6134C388.533 37.8168 382.165 35.4185 373.895 35.4185H325.764C324.275 35.4185 323.531 36.0801 323.531 37.4033V111.833C323.531 113.157 324.275 113.818 325.764 113.818Z" fill="#343434"/>
<path d="M183.017 188H179.543C178.22 188 177.559 187.256 177.559 185.767V30.7046C177.559 29.216 178.22 28.4717 179.543 28.4717H183.017C184.34 28.4717 185.002 29.216 185.002 30.7046V101.165C185.002 102.488 185.746 103.15 187.235 103.15H264.146C265.634 103.15 266.379 102.488 266.379 101.165V30.7046C266.379 29.216 267.04 28.4717 268.363 28.4717H271.837C273.16 28.4717 273.822 29.216 273.822 30.7046V185.767C273.822 187.256 273.16 188 271.837 188H268.363C267.04 188 266.379 187.256 266.379 185.767V112.081C266.379 110.758 265.634 110.097 264.146 110.097H187.235C185.746 110.097 185.002 110.758 185.002 112.081V185.767C185.002 187.256 184.34 188 183.017 188Z" fill="#343434"/>
<path d="M108.346 188H76.0934C66.004 188 57.8994 184.94 51.7796 178.82C45.8252 172.701 42.848 164.513 42.848 154.258V62.2133C42.848 51.9585 45.8252 43.7712 51.7796 37.6514C57.8994 31.5316 66.004 28.4717 76.0934 28.4717H108.346C118.436 28.4717 126.458 31.5316 132.412 37.6514C138.532 43.7712 141.592 51.9585 141.592 62.2133V74.6183C141.592 76.1069 140.93 76.8512 139.607 76.8512H136.134C134.81 76.8512 134.149 76.1069 134.149 74.6183V62.4614C134.149 54.026 131.916 47.41 127.45 42.6134C122.984 37.8168 116.616 35.4185 108.346 35.4185H76.0934C67.8234 35.4185 61.4555 37.8168 56.9897 42.6134C52.5239 47.41 50.291 54.026 50.291 62.4614V154.01C50.291 162.446 52.5239 169.062 56.9897 173.858C61.4555 178.655 67.8234 181.053 76.0934 181.053H108.346C116.616 181.053 122.984 178.655 127.45 173.858C131.916 169.062 134.149 162.446 134.149 154.01V141.853C134.149 140.365 134.81 139.621 136.134 139.621H139.607C140.93 139.621 141.592 140.365 141.592 141.853V154.258C141.592 164.513 138.532 172.701 132.412 178.82C126.458 184.94 118.436 188 108.346 188Z" fill="#343434"/>
<path d="M640.235 76.8861H680.427C681.916 76.8861 682.66 77.5477 682.66 78.8709V81.8481C682.66 83.1713 681.916 83.8329 680.427 83.8329H640.235V124.273C640.235 125.762 639.574 126.506 638.25 126.506H634.777C633.454 126.506 632.792 125.762 632.792 124.273V83.8329H592.6C591.111 83.8329 590.367 83.1713 590.367 81.8481V78.8709C590.367 77.5477 591.111 76.8861 592.6 76.8861H632.792V36.4458C632.792 34.9572 633.454 34.2129 634.777 34.2129H638.25C639.574 34.2129 640.235 34.9572 640.235 36.4458V76.8861Z" fill="#343434"/>
</svg>
