<svg width="123" height="30" viewBox="0 0 123 30" fill="none" xmlns="http://www.w3.org/2000/svg">
<path d="M10.6818 18.8182H14.1591L17.0739 22.6534L17.8409 23.6761L22.1875 29.4545H18.7102L15.8466 25.6193L15.1307 24.6477L10.6818 18.8182ZM23.2614 13.9091C23.2614 16.6705 22.7628 19.0568 21.7656 21.0682C20.7685 23.0795 19.4006 24.6307 17.6619 25.7216C15.9233 26.8125 13.9375 27.358 11.7045 27.358C9.47159 27.358 7.4858 26.8125 5.74716 25.7216C4.00852 24.6307 2.64063 23.0795 1.64347 21.0682C0.646307 19.0568 0.147727 16.6705 0.147727 13.9091C0.147727 11.1477 0.646307 8.76136 1.64347 6.75C2.64063 4.73864 4.00852 3.1875 5.74716 2.09659C7.4858 1.00568 9.47159 0.460226 11.7045 0.460226C13.9375 0.460226 15.9233 1.00568 17.6619 2.09659C19.4006 3.1875 20.7685 4.73864 21.7656 6.75C22.7628 8.76136 23.2614 11.1477 23.2614 13.9091ZM20.1932 13.9091C20.1932 11.642 19.8139 9.72869 19.0554 8.16903C18.3054 6.60938 17.2869 5.42898 16 4.62784C14.7216 3.8267 13.2898 3.42614 11.7045 3.42614C10.1193 3.42614 8.68324 3.8267 7.39631 4.62784C6.1179 5.42898 5.09943 6.60938 4.34091 8.16903C3.59091 9.72869 3.21591 11.642 3.21591 13.9091C3.21591 16.1761 3.59091 18.0895 4.34091 19.6491C5.09943 21.2088 6.1179 22.3892 7.39631 23.1903C8.68324 23.9915 10.1193 24.392 11.7045 24.392C13.2898 24.392 14.7216 23.9915 16 23.1903C17.2869 22.3892 18.3054 21.2088 19.0554 19.6491C19.8139 18.0895 20.1932 16.1761 20.1932 13.9091ZM28.5923 27V0.818181H37.7457C39.5696 0.818181 41.0739 1.13352 42.2585 1.7642C43.4432 2.38636 44.3253 3.22585 44.9048 4.28267C45.4844 5.33096 45.7741 6.49432 45.7741 7.77273C45.7741 8.89773 45.5739 9.8267 45.1733 10.5597C44.7813 11.2926 44.2614 11.8722 43.6136 12.2983C42.9744 12.7244 42.2798 13.0398 41.5298 13.2443V13.5C42.331 13.5511 43.1364 13.8324 43.946 14.3438C44.7557 14.8551 45.4332 15.5881 45.9787 16.5426C46.5241 17.4972 46.7969 18.6648 46.7969 20.0455C46.7969 21.358 46.4986 22.5384 45.902 23.5866C45.3054 24.6349 44.3636 25.4659 43.0767 26.0795C41.7898 26.6932 40.1151 27 38.0526 27H28.5923ZM31.7628 24.1875H38.0526C40.1236 24.1875 41.5938 23.7869 42.4631 22.9858C43.3409 22.1761 43.7798 21.196 43.7798 20.0455C43.7798 19.1591 43.554 18.3409 43.1023 17.5909C42.6506 16.8324 42.0071 16.2273 41.1719 15.7756C40.3366 15.3153 39.348 15.0852 38.206 15.0852H31.7628V24.1875ZM31.7628 12.3239H37.6435C38.598 12.3239 39.4588 12.1364 40.2259 11.7614C41.0014 11.3864 41.6151 10.858 42.0668 10.1761C42.527 9.49432 42.7571 8.69318 42.7571 7.77273C42.7571 6.62216 42.3565 5.64631 41.5554 4.84517C40.7543 4.03551 39.4844 3.63068 37.7457 3.63068H31.7628V12.3239ZM51.5973 27V7.36364H54.5121V10.3295H54.7166C55.0746 9.35795 55.7223 8.5696 56.6598 7.96449C57.5973 7.35937 58.6541 7.05682 59.8303 7.05682C60.0518 7.05682 60.3288 7.06108 60.6612 7.0696C60.9936 7.07812 61.245 7.09091 61.4155 7.10795V10.1761C61.3132 10.1506 61.0788 10.1122 60.7124 10.0611C60.3544 10.0014 59.9751 9.97159 59.5746 9.97159C58.62 9.97159 57.7678 10.1719 57.0178 10.5724C56.2763 10.9645 55.6882 11.5099 55.2536 12.2088C54.8274 12.8991 54.6143 13.6875 54.6143 14.5739V27H51.5973ZM70.7702 27.4602C69.5259 27.4602 68.3967 27.2259 67.3825 26.7571C66.3683 26.2798 65.5629 25.5938 64.9663 24.6989C64.3697 23.7955 64.0714 22.7045 64.0714 21.4261C64.0714 20.3011 64.293 19.3892 64.7362 18.6903C65.1793 17.983 65.7717 17.429 66.5131 17.0284C67.2546 16.6278 68.0728 16.3295 68.9677 16.1335C69.8711 15.929 70.7788 15.767 71.6907 15.6477C72.8839 15.4943 73.8512 15.3793 74.5927 15.3026C75.3427 15.2173 75.8881 15.0767 76.229 14.8807C76.5785 14.6847 76.7532 14.3437 76.7532 13.858V13.7557C76.7532 12.4943 76.408 11.5142 75.7177 10.8153C75.0359 10.1165 74.0004 9.76705 72.6112 9.76705C71.1708 9.76705 70.0415 10.0824 69.2234 10.7131C68.4052 11.3437 67.8299 12.017 67.4975 12.733L64.6339 11.7102C65.1452 10.517 65.8271 9.58807 66.6793 8.9233C67.5401 8.25 68.4776 7.78125 69.4918 7.51705C70.5146 7.24432 71.5202 7.10795 72.5089 7.10795C73.1396 7.10795 73.864 7.18466 74.6822 7.33807C75.5089 7.48295 76.3058 7.78551 77.0728 8.24574C77.8484 8.70597 78.4918 9.40057 79.0032 10.3295C79.5146 11.2585 79.7702 12.5028 79.7702 14.0625V27H76.7532V24.3409H76.5998C76.3952 24.767 76.0543 25.223 75.5771 25.7088C75.0998 26.1946 74.4648 26.608 73.6722 26.9489C72.8796 27.2898 71.9123 27.4602 70.7702 27.4602ZM71.2305 24.75C72.4237 24.75 73.4293 24.5156 74.2475 24.0469C75.0742 23.5781 75.6964 22.973 76.114 22.2315C76.5401 21.4901 76.7532 20.7102 76.7532 19.892V17.1307C76.6254 17.2841 76.3441 17.4247 75.9094 17.5526C75.4833 17.6719 74.989 17.7784 74.4265 17.8722C73.8725 17.9574 73.3313 18.0341 72.8029 18.1023C72.283 18.1619 71.8612 18.2131 71.5373 18.2557C70.7532 18.358 70.0202 18.5241 69.3384 18.7543C68.6651 18.9759 68.1197 19.3125 67.7021 19.7642C67.293 20.2074 67.0884 20.8125 67.0884 21.5795C67.0884 22.6278 67.4762 23.4205 68.2518 23.9574C69.0359 24.4858 70.0288 24.75 71.2305 24.75ZM88.294 15.1875V27H85.277V7.36364H88.1918V10.4318H88.4474C88.9077 9.43466 89.6065 8.63352 90.544 8.02841C91.4815 7.41477 92.6918 7.10795 94.1747 7.10795C95.5043 7.10795 96.6676 7.38068 97.6648 7.92614C98.6619 8.46307 99.4375 9.28125 99.9915 10.3807C100.545 11.4716 100.822 12.8523 100.822 14.5227V27H97.8054V14.7273C97.8054 13.1847 97.4048 11.983 96.6037 11.1222C95.8026 10.2528 94.7031 9.81818 93.3054 9.81818C92.3423 9.81818 91.4815 10.027 90.723 10.4446C89.973 10.8622 89.3807 11.4716 88.946 12.2727C88.5114 13.0739 88.294 14.0455 88.294 15.1875ZM114.569 27.4091C112.676 27.4091 111.044 26.9915 109.672 26.1562C108.309 25.3125 107.256 24.1364 106.515 22.6278C105.782 21.1108 105.415 19.3466 105.415 17.3352C105.415 15.3239 105.782 13.5511 106.515 12.017C107.256 10.4744 108.287 9.27273 109.608 8.41193C110.938 7.54261 112.489 7.10795 114.262 7.10795C115.284 7.10795 116.294 7.27841 117.292 7.61932C118.289 7.96023 119.196 8.5142 120.015 9.28125C120.833 10.0398 121.485 11.0455 121.971 12.2983C122.456 13.5511 122.699 15.0937 122.699 16.9261V18.2045H107.563V15.5966H119.631C119.631 14.4886 119.409 13.5 118.966 12.6307C118.532 11.7614 117.909 11.0753 117.1 10.5724C116.299 10.0696 115.353 9.81818 114.262 9.81818C113.06 9.81818 112.02 10.1165 111.142 10.7131C110.273 11.3011 109.604 12.0682 109.135 13.0142C108.667 13.9602 108.432 14.9744 108.432 16.0568V17.7955C108.432 19.2784 108.688 20.5355 109.199 21.5668C109.719 22.5895 110.439 23.3693 111.36 23.9062C112.28 24.4347 113.35 24.6989 114.569 24.6989C115.361 24.6989 116.077 24.5881 116.716 24.3665C117.364 24.1364 117.922 23.7955 118.391 23.3438C118.86 22.8835 119.222 22.3125 119.478 21.6307L122.392 22.4489C122.086 23.4375 121.57 24.3068 120.846 25.0568C120.121 25.7983 119.226 26.3778 118.161 26.7955C117.096 27.2045 115.898 27.4091 114.569 27.4091Z" fill="black"/>
</svg>
