<svg width="143" height="45" viewBox="0 0 143 45" fill="none" xmlns="http://www.w3.org/2000/svg">
<g filter="url(#filter0_d_415_3)">
<path d="M21.1307 11C21.2074 10.1562 21.0028 9.49574 20.517 9.01847C20.0313 8.53267 19.2131 8.28977 18.0625 8.28977C17.3295 8.28977 16.7159 8.375 16.2216 8.54545C15.7358 8.71591 15.3565 8.95028 15.0838 9.24858C14.8196 9.54687 14.6534 9.89204 14.5852 10.2841C14.5085 10.5909 14.5128 10.8722 14.598 11.1278C14.6918 11.375 14.8665 11.6009 15.1222 11.8054C15.3864 12.0099 15.7315 12.1932 16.1577 12.3551C16.5923 12.517 17.108 12.6619 17.7045 12.7898L19.75 13.25C21.1477 13.5568 22.3196 13.9616 23.2656 14.4645C24.2202 14.9588 24.9702 15.5469 25.5156 16.2287C26.0611 16.9105 26.419 17.6733 26.5895 18.517C26.7685 19.3608 26.7727 20.2812 26.6023 21.2784C26.3125 23 25.6435 24.4574 24.5952 25.6506C23.5469 26.8438 22.179 27.7514 20.4915 28.3736C18.804 28.9957 16.8523 29.3068 14.6364 29.3068C12.3693 29.3068 10.4432 28.9702 8.85795 28.2969C7.28125 27.6151 6.1392 26.5753 5.43182 25.1776C4.73295 23.7713 4.5625 21.9773 4.92045 19.7955H11.6705C11.5682 20.5966 11.6534 21.2699 11.9261 21.8153C12.1989 22.3608 12.6378 22.7741 13.2429 23.0554C13.848 23.3366 14.6023 23.4773 15.5057 23.4773C16.2727 23.4773 16.929 23.3835 17.4744 23.196C18.0199 23.0085 18.4503 22.7486 18.7656 22.4162C19.081 22.0838 19.2727 21.7045 19.3409 21.2784C19.4091 20.8864 19.3409 20.5369 19.1364 20.2301C18.9318 19.9233 18.5611 19.6463 18.0241 19.3991C17.4872 19.152 16.75 18.9261 15.8125 18.7216L13.3068 18.1591C11.0824 17.6477 9.40341 16.804 8.26989 15.6278C7.13636 14.4517 6.7358 12.8409 7.06818 10.7955C7.34091 9.125 8.02699 7.66761 9.12642 6.4233C10.2344 5.17045 11.6406 4.19886 13.3452 3.50852C15.0582 2.80966 16.9545 2.46023 19.0341 2.46023C21.1477 2.46023 22.9162 2.81392 24.3395 3.52131C25.7713 4.22869 26.7983 5.22159 27.4205 6.5C28.0511 7.77841 28.2216 9.27841 27.9318 11H21.1307ZM39.5334 2.81818L35.1868 29H28.13L32.4766 2.81818H39.5334ZM48.1403 29.358C46.0437 29.358 44.305 28.9574 42.9244 28.1562C41.5437 27.3466 40.5721 26.1875 40.0096 24.679C39.4471 23.1619 39.3448 21.3466 39.7028 19.233C40.0437 17.2045 40.7468 15.4318 41.8121 13.9148C42.886 12.3977 44.2369 11.2173 45.8647 10.3736C47.5011 9.52983 49.3335 9.10795 51.3619 9.10795C52.8448 9.10795 54.1445 9.33807 55.261 9.7983C56.386 10.2585 57.3022 10.9276 58.0096 11.8054C58.717 12.6832 59.1942 13.7443 59.4414 14.9886C59.6971 16.2244 59.6971 17.6222 59.4414 19.1818L59.1857 20.8182H41.646L42.2596 16.9318H53.305C53.3903 16.3693 53.3349 15.875 53.1389 15.4489C52.9514 15.0142 52.6488 14.6776 52.2312 14.4389C51.8221 14.1918 51.3278 14.0682 50.7482 14.0682C50.1687 14.0682 49.6232 14.1918 49.1119 14.4389C48.609 14.6861 48.1786 15.0312 47.8207 15.4744C47.4712 15.9176 47.2369 16.4375 47.1175 17.0341L46.3505 21.125C46.2482 21.7557 46.2866 22.3182 46.4656 22.8125C46.6445 23.3068 46.9556 23.6946 47.3988 23.9759C47.842 24.2571 48.413 24.3977 49.1119 24.3977C49.5891 24.3977 50.0408 24.3338 50.467 24.206C50.9016 24.0696 51.2852 23.8736 51.6175 23.6179C51.9585 23.3537 52.2312 23.0341 52.4357 22.6591H58.8789C58.4187 24.0227 57.69 25.2074 56.6928 26.2131C55.7042 27.2102 54.4854 27.9858 53.0366 28.5398C51.5962 29.0852 49.9641 29.358 48.1403 29.358ZM70.0426 29.358C67.946 29.358 66.2074 28.9574 64.8267 28.1562C63.446 27.3466 62.4744 26.1875 61.9119 24.679C61.3494 23.1619 61.2472 21.3466 61.6051 19.233C61.946 17.2045 62.6491 15.4318 63.7145 13.9148C64.7884 12.3977 66.1392 11.2173 67.767 10.3736C69.4034 9.52983 71.2358 9.10795 73.2642 9.10795C74.7472 9.10795 76.0469 9.33807 77.1634 9.7983C78.2884 10.2585 79.2045 10.9276 79.9119 11.8054C80.6193 12.6832 81.0966 13.7443 81.3438 14.9886C81.5994 16.2244 81.5994 17.6222 81.3438 19.1818L81.0881 20.8182H63.5483L64.1619 16.9318H75.2074C75.2926 16.3693 75.2372 15.875 75.0412 15.4489C74.8537 15.0142 74.5511 14.6776 74.1335 14.4389C73.7244 14.1918 73.2301 14.0682 72.6506 14.0682C72.071 14.0682 71.5256 14.1918 71.0142 14.4389C70.5114 14.6861 70.081 15.0312 69.723 15.4744C69.3736 15.9176 69.1392 16.4375 69.0199 17.0341L68.2528 21.125C68.1506 21.7557 68.1889 22.3182 68.3679 22.8125C68.5469 23.3068 68.858 23.6946 69.3011 23.9759C69.7443 24.2571 70.3153 24.3977 71.0142 24.3977C71.4915 24.3977 71.9432 24.3338 72.3693 24.206C72.804 24.0696 73.1875 23.8736 73.5199 23.6179C73.8608 23.3537 74.1335 23.0341 74.3381 22.6591H80.7812C80.321 24.0227 79.5923 25.2074 78.5952 26.2131C77.6065 27.2102 76.3878 27.9858 74.9389 28.5398C73.4986 29.0852 71.8665 29.358 70.0426 29.358ZM81.4109 36.3636L85.9364 9.36364H92.9421L92.3796 12.7898H92.533C92.891 12.125 93.3597 11.5156 93.9393 10.9616C94.5273 10.3991 95.2177 9.9517 96.0103 9.61932C96.8114 9.27841 97.6978 9.10795 98.6694 9.10795C99.9648 9.10795 101.137 9.45312 102.185 10.1435C103.233 10.8338 104.005 11.9205 104.499 13.4034C104.993 14.8864 105.044 16.8125 104.652 19.1818C104.277 21.4489 103.608 23.3281 102.645 24.8196C101.691 26.3111 100.566 27.4233 99.2702 28.1562C97.9833 28.8892 96.641 29.2557 95.2433 29.2557C94.3228 29.2557 93.5259 29.1065 92.8526 28.8082C92.1793 28.5014 91.6381 28.0881 91.229 27.5682C90.82 27.0398 90.5387 26.4432 90.3853 25.7784H90.2319L88.4933 36.3636H81.4109ZM91.2035 19.1818C91.0501 20.1364 91.0373 20.9631 91.1651 21.6619C91.3015 22.3523 91.57 22.8892 91.9705 23.2727C92.3796 23.6477 92.908 23.8352 93.5558 23.8352C94.2035 23.8352 94.783 23.652 95.2944 23.2855C95.8058 22.9105 96.2404 22.3778 96.5984 21.6875C96.9563 20.9886 97.2205 20.1534 97.391 19.1818C97.5444 18.2102 97.5572 17.3793 97.4293 16.6889C97.3015 15.9901 97.0415 15.4574 96.6495 15.0909C96.2575 14.7159 95.7376 14.5284 95.0898 14.5284C94.4421 14.5284 93.8498 14.7159 93.3129 15.0909C92.7844 15.4574 92.337 15.9901 91.9705 16.6889C91.6126 17.3793 91.3569 18.2102 91.2035 19.1818ZM105.966 29L109.239 9.36364H116.295L113.023 29H105.966ZM113.074 7.31818C112.119 7.31818 111.348 7.00284 110.76 6.37216C110.172 5.73295 109.955 4.97443 110.108 4.09659C110.261 3.2017 110.73 2.44318 111.514 1.82102C112.298 1.19034 113.168 0.875 114.122 0.875C115.085 0.875 115.852 1.19034 116.423 1.82102C116.994 2.44318 117.207 3.2017 117.062 4.09659C116.926 4.97443 116.466 5.73295 115.682 6.37216C114.906 7.00284 114.037 7.31818 113.074 7.31818ZM125.567 17.9545L123.726 29H116.669L119.942 9.36364H126.641L126.027 13.0966H126.232C126.854 11.8437 127.762 10.8679 128.955 10.169C130.157 9.46165 131.482 9.10795 132.931 9.10795C134.32 9.10795 135.475 9.4233 136.395 10.054C137.316 10.6847 137.968 11.554 138.351 12.6619C138.735 13.7699 138.803 15.0398 138.556 16.4716L136.459 29H129.402L131.243 17.9545C131.405 16.983 131.286 16.2202 130.885 15.6662C130.493 15.1122 129.846 14.8352 128.942 14.8352C128.371 14.8352 127.847 14.9631 127.37 15.2188C126.901 15.4659 126.509 15.8239 126.194 16.2926C125.887 16.7528 125.678 17.3068 125.567 17.9545Z" fill="white"/>
</g>
<defs>
<filter id="filter0_d_415_3" x="0.383545" y="0.875" width="142.543" height="43.4888" filterUnits="userSpaceOnUse" color-interpolation-filters="sRGB">
<feFlood flood-opacity="0" result="BackgroundImageFix"/>
<feColorMatrix in="SourceAlpha" type="matrix" values="0 0 0 0 0 0 0 0 0 0 0 0 0 0 0 0 0 0 127 0" result="hardAlpha"/>
<feOffset dy="4"/>
<feGaussianBlur stdDeviation="2"/>
<feComposite in2="hardAlpha" operator="out"/>
<feColorMatrix type="matrix" values="0 0 0 0 0 0 0 0 0 0 0 0 0 0 0 0 0 0 0.25 0"/>
<feBlend mode="normal" in2="BackgroundImageFix" result="effect1_dropShadow_415_3"/>
<feBlend mode="normal" in="SourceGraphic" in2="effect1_dropShadow_415_3" result="shape"/>
</filter>
</defs>
</svg>
